<?xml version="1.0" encoding="UTF-8"?>
<svg overflow="visible" baseProfile="tiny" version="1.2" viewBox="0 0 61.6 61.6" xml:space="preserve" xmlns="http://www.w3.org/2000/svg">
<circle cx="30.7" cy="30.9" r="30.7" fill="#039"/>

	
		
			<path d="m31.3 6.8-1.1 3.3 1.7 0.5-0.6-3.8z" fill="#fc0"/>
			<g transform="scale(-1,1)">
				<path d="m31.3 6.8 1.1 3.3-1.7 0.5 0.6-3.8z" fill="#fc0"/>
			</g>
		
		
			<g transform="rotate(72)">
				
					<path d="m34.6 9.2h-3.5v1.7l3.5-1.7z" fill="#fc0"/>
					<g transform="scale(-1,1)">
						<path d="m34.6 9.2-2.8 2-1-1.4 3.8-0.6z" fill="#fc0"/>
					</g>
				
			</g>
			<g transform="rotate(144)">
				
					<path d="m33.3 13.1-1.1-3.3-1.7 0.5 2.8 2.8z" fill="#fc0"/>
					<g transform="scale(-1,1)">
						<path d="m33.3 13.1-2.8-2 1-1.4 1.8 3.4z" fill="#fc0"/>
					</g>
				
			</g>
		
		<g transform="scale(-1,1)">
			
				<g transform="rotate(72)">
					
						<path d="m27.9 9.2h3.5v1.7l-3.5-1.7z" fill="#fc0"/>
						<g transform="scale(-1,1)">
							<path d="m27.9 9.2 2.8 2 1-1.4-3.8-0.6z" fill="#fc0"/>
						</g>
					
				</g>
				<g transform="rotate(144)">
					
						<path d="m29.2 13.1 1.1-3.3 1.7 0.5-2.8 2.8z" fill="#fc0"/>
						<g transform="scale(-1,1)">
							<path d="m29.2 13.1 2.8-2-1-1.4-1.8 3.4z" fill="#fc0"/>
						</g>
					
				</g>
			
		</g>
	


	
		
			<path d="m31.3 48.5-1.1 3.3 1.7 0.5-0.6-3.8z" fill="#fc0"/>
			<g transform="scale(-1,1)">
				<path d="m31.3 48.5 1.1 3.3-1.7 0.5 0.6-3.8z" fill="#fc0"/>
			</g>
		
		
			<g transform="rotate(72)">
				
					<path d="m34.6 50.9h-3.5v1.7l3.5-1.7z" fill="#fc0"/>
					<g transform="scale(-1,1)">
						<path d="m34.6 50.9-2.8 2-1-1.4 3.8-0.6z" fill="#fc0"/>
					</g>
				
			</g>
			<g transform="rotate(144)">
				
					<path d="m33.3 54.8-1.1-3.3-1.6 0.5 2.7 2.8z" fill="#fc0"/>
					<g transform="scale(-1,1)">
						<path d="m33.3 54.8-2.8-2 1-1.4 1.8 3.4z" fill="#fc0"/>
					</g>
				
			</g>
		
		<g transform="scale(-1,1)">
			
				<g transform="rotate(72)">
					
						<path d="m27.9 50.9h3.5v1.7l-3.5-1.7z" fill="#fc0"/>
						<g transform="scale(-1,1)">
							<path d="m27.9 50.9 2.8 2 1-1.4-3.8-0.6z" fill="#fc0"/>
						</g>
					
				</g>
				<g transform="rotate(144)">
					
						<path d="m29.2 54.8 1.1-3.3 1.7 0.5-2.8 2.8z" fill="#fc0"/>
						<g transform="scale(-1,1)">
							<path d="m29.2 54.8 2.8-2-1-1.4-1.8 3.4z" fill="#fc0"/>
						</g>
					
				</g>
			
		</g>
	


	
		
			<path d="m10.4 27.6-1.1 3.3 1.7 0.5-0.6-3.8z" fill="#fc0"/>
			<g transform="scale(-1,1)">
				<path d="m10.4 27.6 1.1 3.3-1.7 0.5 0.6-3.8z" fill="#fc0"/>
			</g>
		
		
			<g transform="rotate(72)">
				
					<path d="m13.7 30h-3.5v1.7l3.5-1.7z" fill="#fc0"/>
					<g transform="scale(-1,1)">
						<path d="m13.7 30-2.8 2-1-1.4 3.8-0.6z" fill="#fc0"/>
					</g>
				
			</g>
			<g transform="rotate(144)">
				
					<path d="m12.4 33.9-1.1-3.3-1.7 0.5 2.8 2.8z" fill="#fc0"/>
					<g transform="scale(-1,1)">
						<path d="m12.4 33.9-2.8-2 1-1.4 1.8 3.4z" fill="#fc0"/>
					</g>
				
			</g>
		
		<g transform="scale(-1,1)">
			
				<g transform="rotate(72)">
					
						<path d="M7.1,30h3.5v1.7L7.1,30z" fill="#fc0"/>
						<g transform="scale(-1,1)">
							<path d="M7.1,30l2.8,2l1-1.4L7.1,30z" fill="#fc0"/>
						</g>
					
				</g>
				<g transform="rotate(144)">
					
						<path d="m8.3 33.9 1.1-3.3 1.7 0.5-2.8 2.8z" fill="#fc0"/>
						<g transform="scale(-1,1)">
							<path d="m8.3 33.9 2.8-2-1-1.4-1.8 3.4z" fill="#fc0"/>
						</g>
					
				</g>
			
		</g>
	

<g transform="rotate(150)translate(0,6)rotate(66)">
	
		
			<path d="m18.8 15.9 2.8-2-1-1.4-1.8 3.4z" fill="#fc0"/>
			<g transform="scale(-1,1)">
				<path d="m18.8 15.9 1.1-3.3 1.7 0.5-2.8 2.8z" fill="#fc0"/>
			</g>
		
		
			<g transform="rotate(72)">
				
					<path d="m17.5 12 2.8 2 1-1.4-3.8-0.6z" fill="#fc0"/>
					<g transform="scale(-1,1)">
						<path d="M17.5,12H21v1.7L17.5,12z" fill="#fc0"/>
					</g>
				
			</g>
			<g transform="rotate(144)">
				
					<path d="m20.8 9.6-1.1 3.3 1.7 0.5-0.6-3.8z" fill="#fc0"/>
					<g transform="scale(-1,1)">
						<path d="m20.8 9.6 1.1 3.3-1.7 0.5 0.6-3.8z" fill="#fc0"/>
					</g>
				
			</g>
		
		<g transform="scale(-1,1)">
			
				<g transform="rotate(72)">
					
						<path d="m22.9 15.9-2.8-2 1-1.4 1.8 3.4z" fill="#fc0"/>
						<g transform="scale(-1,1)">
							<path d="m22.9 15.9-1.1-3.3-1.7 0.5 2.8 2.8z" fill="#fc0"/>
						</g>
					
				</g>
				<g transform="rotate(144)">
					
						<path d="m24.1 12-2.8 2-1-1.4 3.8-0.6z" fill="#fc0"/>
						<g transform="scale(-1,1)">
							<path d="m24.1 12h-3.5v1.7l3.5-1.7z" fill="#fc0"/>
						</g>
					
				</g>
			
		</g>
	
</g>
<g transform="rotate(120)translate(0,6)rotate(24)">
	
		
			<path d="m15.2 23.5-1.1-3.3-1.7 0.5 2.8 2.8z" fill="#fc0"/>
			<g transform="scale(-1,1)">
				<path d="m15.2 23.5-2.8-2 1-1.4 1.8 3.4z" fill="#fc0"/>
			</g>
		
		
			<g transform="rotate(72)">
				
					<path d="m11.1 23.5 2.8-2-1-1.4-1.8 3.4z" fill="#fc0"/>
					<g transform="scale(-1,1)">
						<path d="m11.1 23.5 1.1-3.3 1.7 0.5-2.8 2.8z" fill="#fc0"/>
					</g>
				
			</g>
			<g transform="rotate(144)">
				
					<path d="m9.9 19.6 2.8 2 1-1.4-3.8-0.6z" fill="#fc0"/>
					<g transform="scale(-1,1)">
						<path d="m9.9 19.6h3.5v1.7l-3.5-1.7z" fill="#fc0"/>
					</g>
				
			</g>
		
		<g transform="scale(-1,1)">
			
				<g transform="rotate(72)">
					
						<path d="m16.5 19.6-2.8 2-1-1.4 3.8-0.6z" fill="#fc0"/>
						<g transform="scale(-1,1)">
							<path d="m16.5 19.6h-3.5v1.7l3.5-1.7z" fill="#fc0"/>
						</g>
					
				</g>
				<g transform="rotate(144)">
					
						<path d="m13.2 17.2 1.1 3.3-1.7 0.5 0.6-3.8z" fill="#fc0"/>
						<g transform="scale(-1,1)">
							<path d="m13.2 17.2-1.1 3.3 1.7 0.5-0.6-3.8z" fill="#fc0"/>
						</g>
					
				</g>
			
		</g>
	
</g>
<g transform="rotate(60)translate(0,6)rotate(12)">
	
		
			<path d="m16.5 40.5h-3.5v1.7l3.5-1.7z" fill="#fc0"/>
			<g transform="scale(-1,1)">
				<path d="m16.5 40.5-2.8 2-1-1.4 3.8-0.6z" fill="#fc0"/>
			</g>
		
		
			<g transform="rotate(72)">
				
					<path d="m15.2 44.4-1.1-3.3-1.7 0.5 2.8 2.8z" fill="#fc0"/>
					<g transform="scale(-1,1)">
						<path d="m15.2 44.4-2.8-2 1-1.4 1.8 3.4z" fill="#fc0"/>
					</g>
				
			</g>
			<g transform="rotate(144)">
				
					<path d="m11.1 44.4 2.8-2-1-1.4-1.8 3.4z" fill="#fc0"/>
					<g transform="scale(-1,1)">
						<path d="m11.1 44.4 1.1-3.3 1.7 0.5-2.8 2.8z" fill="#fc0"/>
					</g>
				
			</g>
		
		<g transform="scale(-1,1)">
			
				<g transform="rotate(72)">
					
						<path d="m13.2 38.1 1.1 3.3-1.7 0.5 0.6-3.8z" fill="#fc0"/>
						<g transform="scale(-1,1)">
							<path d="m13.2 38.1-1.1 3.3 1.7 0.5-0.6-3.8z" fill="#fc0"/>
						</g>
					
				</g>
				<g transform="rotate(144)">
					
						<path d="m9.9 40.5h3.5v1.7l-3.5-1.7z" fill="#fc0"/>
						<g transform="scale(-1,1)">
							<path d="m9.9 40.5 2.8 2 1-1.4-3.8-0.6z" fill="#fc0"/>
						</g>
					
				</g>
			
		</g>
	
</g>
<g transform="rotate(30)translate(0,6)rotate(42)">
	
		
			<path d="m24.1 48.1h-3.5v1.7l3.5-1.7z" fill="#fc0"/>
			<g transform="scale(-1,1)">
				<path d="m24.1 48.1-2.8 2-1-1.4 3.8-0.6z" fill="#fc0"/>
			</g>
		
		
			<g transform="rotate(72)">
				
					<path d="m22.9 52-1.1-3.3-1.7 0.5 2.8 2.8z" fill="#fc0"/>
					<g transform="scale(-1,1)">
						<path d="m22.9 52-2.8-2 1-1.4 1.8 3.4z" fill="#fc0"/>
					</g>
				
			</g>
			<g transform="rotate(144)">
				
					<path d="m18.8 52 2.8-2-1-1.4-1.8 3.4z" fill="#fc0"/>
					<g transform="scale(-1,1)">
						<path d="m18.8 52 1.1-3.3 1.7 0.5-2.8 2.8z" fill="#fc0"/>
					</g>
				
			</g>
		
		<g transform="scale(-1,1)">
			
				<g transform="rotate(72)">
					
						<path d="m20.8 45.7 1.1 3.3-1.7 0.5 0.6-3.8z" fill="#fc0"/>
						<g transform="scale(-1,1)">
							<path d="m20.8 45.7-1.1 3.3 1.7 0.5-0.6-3.8z" fill="#fc0"/>
						</g>
					
				</g>
				<g transform="rotate(144)">
					
						<path d="m17.5 48.1h3.5v1.7l-3.5-1.7z" fill="#fc0"/>
						<g transform="scale(-1,1)">
							<path d="m17.5 48.1 2.8 2 1-1.4-3.8-0.6z" fill="#fc0"/>
						</g>
					
				</g>
			
		</g>
	
</g>

	
		
			<path d="m52.1 27.6 1.1 3.3-1.7 0.5 0.6-3.8z" fill="#fc0"/>
			<g transform="scale(-1,1)">
				<path d="m52.1 27.6-1.1 3.3 1.7 0.5-0.6-3.8z" fill="#fc0"/>
			</g>
		
		
			<g transform="rotate(72)">
				
					<path d="M48.8,30h3.5v1.7L48.8,30z" fill="#fc0"/>
					<g transform="scale(-1,1)">
						<path d="m48.8 30 2.8 2 1-1.4-3.8-0.6z" fill="#fc0"/>
					</g>
				
			</g>
			<g transform="rotate(144)">
				
					<path d="m50.1 33.9 1.1-3.3 1.7 0.5-2.8 2.8z" fill="#fc0"/>
					<g transform="scale(-1,1)">
						<path d="m50.1 33.9 2.8-2-1-1.4-1.8 3.4z" fill="#fc0"/>
					</g>
				
			</g>
		
		<g transform="scale(-1,1)">
			
				<g transform="rotate(72)">
					
						<path d="m55.4 30h-3.5v1.7l3.5-1.7z" fill="#fc0"/>
						<g transform="scale(-1,1)">
							<path d="m55.4 30-2.8 2-1-1.4 3.8-0.6z" fill="#fc0"/>
						</g>
					
				</g>
				<g transform="rotate(144)">
					
						<path d="m54.2 33.9-1.1-3.3-1.7 0.5 2.8 2.8z" fill="#fc0"/>
						<g transform="scale(-1,1)">
							<path d="m54.2 33.9-2.8-2 1-1.4 1.8 3.4z" fill="#fc0"/>
						</g>
					
				</g>
			
		</g>
	

<g transform="rotate(150)translate(0,6)rotate(66)">
	
		
			<path d="m43.7 15.9-2.8-2 1-1.4 1.8 3.4z" fill="#fc0"/>
			<g transform="scale(-1,1)">
				<path d="m43.7 15.9-1.1-3.3-1.6 0.5 2.7 2.8z" fill="#fc0"/>
			</g>
		
		
			<g transform="rotate(72)">
				
					<path d="m45 12-2.8 2-1-1.4 3.8-0.6z" fill="#fc0"/>
					<g transform="scale(-1,1)">
						<path d="M45,12h-3.5v1.7L45,12z" fill="#fc0"/>
					</g>
				
			</g>
			<g transform="rotate(144)">
				
					<path d="m41.7 9.6 1.1 3.3-1.7 0.5 0.6-3.8z" fill="#fc0"/>
					<g transform="scale(-1,1)">
						<path d="m41.7 9.6-1.1 3.3 1.7 0.5-0.6-3.8z" fill="#fc0"/>
					</g>
				
			</g>
		
		<g transform="scale(-1,1)">
			
				<g transform="rotate(72)">
					
						<path d="m39.6 15.9 2.8-2-1-1.4-1.8 3.4z" fill="#fc0"/>
						<g transform="scale(-1,1)">
							<path d="m39.6 15.9 1.1-3.3 1.7 0.5-2.8 2.8z" fill="#fc0"/>
						</g>
					
				</g>
				<g transform="rotate(144)">
					
						<path d="m38.4 12 2.8 2 1-1.4-3.8-0.6z" fill="#fc0"/>
						<g transform="scale(-1,1)">
							<path d="M38.4,12h3.5v1.7L38.4,12z" fill="#fc0"/>
						</g>
					
				</g>
			
		</g>
	
</g>
<g transform="rotate(120)translate(0,6)rotate(24)">
	
		
			<path d="m47.3 23.5 1.1-3.3 1.7 0.5-2.8 2.8z" fill="#fc0"/>
			<g transform="scale(-1,1)">
				<path d="m47.3 23.5 2.8-2-1-1.4-1.8 3.4z" fill="#fc0"/>
			</g>
		
		
			<g transform="rotate(72)">
				
					<path d="m51.4 23.5-2.8-2 1-1.4 1.8 3.4z" fill="#fc0"/>
					<g transform="scale(-1,1)">
						<path d="m51.4 23.5-1.1-3.3-1.7 0.5 2.8 2.8z" fill="#fc0"/>
					</g>
				
			</g>
			<g transform="rotate(144)">
				
					<path d="m52.6 19.6-2.8 2-1-1.4 3.8-0.6z" fill="#fc0"/>
					<g transform="scale(-1,1)">
						<path d="m52.6 19.6h-3.5v1.7l3.5-1.7z" fill="#fc0"/>
					</g>
				
			</g>
		
		<g transform="scale(-1,1)">
			
				<g transform="rotate(72)">
					
						<path d="m46 19.6 2.8 2 1-1.4-3.8-0.6z" fill="#fc0"/>
						<g transform="scale(-1,1)">
							<path d="M46,19.6h3.5v1.7L46,19.6z" fill="#fc0"/>
						</g>
					
				</g>
				<g transform="rotate(144)">
					
						<path d="m49.3 17.2-1.1 3.3 1.7 0.5-0.6-3.8z" fill="#fc0"/>
						<g transform="scale(-1,1)">
							<path d="m49.3 17.2 1.1 3.3-1.7 0.5 0.6-3.8z" fill="#fc0"/>
						</g>
					
				</g>
			
		</g>
	
</g>
<g transform="rotate(60)translate(0,6)rotate(12)">
	
		
			<path d="M46,40.5h3.5v1.7L46,40.5z" fill="#fc0"/>
			<g transform="scale(-1,1)">
				<path d="m46 40.5 2.8 2 1-1.4-3.8-0.6z" fill="#fc0"/>
			</g>
		
		
			<g transform="rotate(72)">
				
					<path d="m47.3 44.4 1.1-3.3 1.7 0.5-2.8 2.8z" fill="#fc0"/>
					<g transform="scale(-1,1)">
						<path d="m47.3 44.4 2.8-2-1-1.4-1.8 3.4z" fill="#fc0"/>
					</g>
				
			</g>
			<g transform="rotate(144)">
				
					<path d="m51.4 44.4-2.8-2 1-1.4 1.8 3.4z" fill="#fc0"/>
					<g transform="scale(-1,1)">
						<path d="m51.4 44.4-1.1-3.3-1.7 0.5 2.8 2.8z" fill="#fc0"/>
					</g>
				
			</g>
		
		<g transform="scale(-1,1)">
			
				<g transform="rotate(72)">
					
						<path d="m49.3 38.1-1.1 3.3 1.7 0.5-0.6-3.8z" fill="#fc0"/>
						<g transform="scale(-1,1)">
							<path d="m49.3 38.1 1.1 3.3-1.7 0.5 0.6-3.8z" fill="#fc0"/>
						</g>
					
				</g>
				<g transform="rotate(144)">
					
						<path d="m52.6 40.5h-3.5v1.7l3.5-1.7z" fill="#fc0"/>
						<g transform="scale(-1,1)">
							<path d="m52.6 40.5-2.8 2-1-1.4 3.8-0.6z" fill="#fc0"/>
						</g>
					
				</g>
			
		</g>
	
</g>
<g transform="rotate(30)translate(0,6)rotate(42)">
	
		
			<path d="m38.4 48.1h3.5v1.7l-3.5-1.7z" fill="#fc0"/>
			<g transform="scale(-1,1)">
				<path d="m38.4 48.1 2.8 2 1-1.4-3.8-0.6z" fill="#fc0"/>
			</g>
		
		
			<g transform="rotate(72)">
				
					<path d="m39.6 52 1.1-3.3 1.7 0.5-2.8 2.8z" fill="#fc0"/>
					<g transform="scale(-1,1)">
						<path d="m39.6 52 2.8-2-1-1.4-1.8 3.4z" fill="#fc0"/>
					</g>
				
			</g>
			<g transform="rotate(144)">
				
					<path d="m43.7 52-2.8-2 1-1.4 1.8 3.4z" fill="#fc0"/>
					<g transform="scale(-1,1)">
						<path d="m43.7 52-1.1-3.3-1.6 0.5 2.7 2.8z" fill="#fc0"/>
					</g>
				
			</g>
		
		<g transform="scale(-1,1)">
			
				<g transform="rotate(72)">
					
						<path d="m41.7 45.7-1.1 3.3 1.7 0.5-0.6-3.8z" fill="#fc0"/>
						<g transform="scale(-1,1)">
							<path d="m41.7 45.7 1.1 3.3-1.7 0.5 0.6-3.8z" fill="#fc0"/>
						</g>
					
				</g>
				<g transform="rotate(144)">
					
						<path d="m45 48.1h-3.5v1.7l3.5-1.7z" fill="#fc0"/>
						<g transform="scale(-1,1)">
							<path d="m45 48.1-2.8 2-1-1.4 3.8-0.6z" fill="#fc0"/>
						</g>
					
				</g>
			
		</g>
	
</g>
</svg>
