<?xml version="1.0" encoding="UTF-8"?>
<svg xmlns="http://www.w3.org/2000/svg" version="1.1" viewBox="0 0 61.6 61.6">
  <defs>
    <style>
      .cls-1 {
        fill: #fc0;
      }

      .cls-2 {
        fill: #039;
      }
    </style>
  </defs>
  <!-- Generator: Adobe Illustrator 28.7.1, SVG Export Plug-In . SVG Version: 1.2.0 Build 142)  -->
  <g>
    <g id="Layer_2">
      <g>
        <circle class="cls-2" cx="30.8" cy="30.8" r="30.8"/>
        <g>
          <g id="s">
            <g id="c">
              <path id="t" class="cls-1" d="M30.8,3.5l-1.2,3.7,1.9.6-.6-4.3Z"/>
              <path id="t-2" data-name="t" class="cls-1" d="M30.8,3.5l1.2,3.7-1.9.6.6-4.3Z"/>
            </g>
            <g id="a">
              <g id="c-2" data-name="c">
                <path id="t-3" data-name="t" class="cls-1" d="M34.5,6.2h-3.9s0,1.9,0,1.9l3.9-1.9Z"/>
                <path id="t-4" data-name="t" class="cls-1" d="M34.5,6.2l-3.2,2.3-1.1-1.6,4.3-.7Z"/>
              </g>
              <g id="c-3" data-name="c">
                <path id="t-5" data-name="t" class="cls-1" d="M33,10.6l-1.2-3.7-1.9.6,3.1,3.1Z"/>
                <path id="t-6" data-name="t" class="cls-1" d="M33,10.6l-3.2-2.3,1.1-1.6,2,3.9Z"/>
              </g>
            </g>
            <g id="a-2" data-name="a">
              <g id="c-4" data-name="c">
                <path id="t-7" data-name="t" class="cls-1" d="M27,6.2h3.9s0,1.9,0,1.9l-3.9-1.9Z"/>
                <path id="t-8" data-name="t" class="cls-1" d="M27,6.2l3.2,2.3,1.1-1.6-4.3-.7Z"/>
              </g>
              <g id="c-5" data-name="c">
                <path id="t-9" data-name="t" class="cls-1" d="M28.5,10.6l1.2-3.7,1.9.6-3.1,3.1Z"/>
                <path id="t-10" data-name="t" class="cls-1" d="M28.5,10.6l3.2-2.3-1.1-1.6-2,3.9Z"/>
              </g>
            </g>
          </g>
          <g id="s-2" data-name="s">
            <g id="c-6" data-name="c">
              <path id="t-11" data-name="t" class="cls-1" d="M30.8,50.3l-1.2,3.7,1.9.6-.6-4.3Z"/>
              <path id="t-12" data-name="t" class="cls-1" d="M30.8,50.3l1.2,3.7-1.9.6.6-4.3Z"/>
            </g>
            <g id="a-3" data-name="a">
              <g id="c-7" data-name="c">
                <path id="t-13" data-name="t" class="cls-1" d="M34.5,53h-3.9s0,1.9,0,1.9l3.9-1.9Z"/>
                <path id="t-14" data-name="t" class="cls-1" d="M34.5,53l-3.2,2.3-1.1-1.6,4.3-.7Z"/>
              </g>
              <g id="c-8" data-name="c">
                <path id="t-15" data-name="t" class="cls-1" d="M33,57.3l-1.2-3.7-1.9.6,3.1,3.1Z"/>
                <path id="t-16" data-name="t" class="cls-1" d="M33,57.3l-3.2-2.3,1.1-1.6,2,3.9Z"/>
              </g>
            </g>
            <g id="a-4" data-name="a">
              <g id="c-9" data-name="c">
                <path id="t-17" data-name="t" class="cls-1" d="M27,53h3.9s0,1.9,0,1.9l-3.9-1.9Z"/>
                <path id="t-18" data-name="t" class="cls-1" d="M27,53l3.2,2.3,1.1-1.6-4.3-.7Z"/>
              </g>
              <g id="c-10" data-name="c">
                <path id="t-19" data-name="t" class="cls-1" d="M28.5,57.3l1.2-3.7,1.9.6-3.1,3.1Z"/>
                <path id="t-20" data-name="t" class="cls-1" d="M28.5,57.3l3.2-2.3-1.1-1.6-2,3.9Z"/>
              </g>
            </g>
          </g>
          <g id="l">
            <g id="s-3" data-name="s">
              <g id="c-11" data-name="c">
                <path id="t-21" data-name="t" class="cls-1" d="M7.4,26.9l-1.2,3.7,1.9.6-.6-4.3Z"/>
                <path id="t-22" data-name="t" class="cls-1" d="M7.4,26.9l1.2,3.7-1.9.6.6-4.3Z"/>
              </g>
              <g id="a-5" data-name="a">
                <g id="c-12" data-name="c">
                  <path id="t-23" data-name="t" class="cls-1" d="M11.1,29.6h-3.9s0,1.9,0,1.9l3.9-1.9Z"/>
                  <path id="t-24" data-name="t" class="cls-1" d="M11.1,29.6l-3.2,2.3-1.1-1.6,4.3-.7Z"/>
                </g>
                <g id="c-13" data-name="c">
                  <path id="t-25" data-name="t" class="cls-1" d="M9.7,34l-1.2-3.7-1.9.6,3.1,3.1Z"/>
                  <path id="t-26" data-name="t" class="cls-1" d="M9.7,34l-3.2-2.3,1.1-1.6,2,3.9Z"/>
                </g>
              </g>
              <g id="a-6" data-name="a">
                <g id="c-14" data-name="c">
                  <path id="t-27" data-name="t" class="cls-1" d="M3.7,29.6h3.9s0,1.9,0,1.9l-3.9-1.9Z"/>
                  <path id="t-28" data-name="t" class="cls-1" d="M3.7,29.6l3.2,2.3,1.1-1.6-4.3-.7Z"/>
                </g>
                <g id="c-15" data-name="c">
                  <path id="t-29" data-name="t" class="cls-1" d="M5.1,34l1.2-3.7,1.9.6-3.1,3.1Z"/>
                  <path id="t-30" data-name="t" class="cls-1" d="M5.1,34l3.2-2.3-1.1-1.6-2,3.9Z"/>
                </g>
              </g>
            </g>
            <g id="s-4" data-name="s">
              <g id="c-16" data-name="c">
                <path id="t-31" data-name="t" class="cls-1" d="M16.8,13.7l3.2-2.3-1.1-1.6-2,3.9Z"/>
                <path id="t-32" data-name="t" class="cls-1" d="M16.8,13.7l1.2-3.7,1.9.6-3.1,3.1Z"/>
              </g>
              <g id="a-7" data-name="a">
                <g id="c-17" data-name="c">
                  <path id="t-33" data-name="t" class="cls-1" d="M15.3,9.3l3.2,2.3,1.1-1.6-4.3-.7Z"/>
                  <path id="t-34" data-name="t" class="cls-1" d="M15.3,9.3h3.9v1.9s-3.9-1.9-3.9-1.9Z"/>
                </g>
                <g id="c-18" data-name="c">
                  <path id="t-35" data-name="t" class="cls-1" d="M19.1,6.6l-1.2,3.7,1.9.6-.6-4.3Z"/>
                  <path id="t-36" data-name="t" class="cls-1" d="M19.1,6.6l1.2,3.7-1.9.6.6-4.3Z"/>
                </g>
              </g>
              <g id="a-8" data-name="a">
                <g id="c-19" data-name="c">
                  <path id="t-37" data-name="t" class="cls-1" d="M21.3,13.7l-3.2-2.3,1.1-1.6,2,3.9Z"/>
                  <path id="t-38" data-name="t" class="cls-1" d="M21.3,13.7l-1.2-3.7-1.9.6,3.1,3.1Z"/>
                </g>
                <g id="c-20" data-name="c">
                  <path id="t-39" data-name="t" class="cls-1" d="M22.8,9.3l-3.2,2.3-1.1-1.6,4.3-.7Z"/>
                  <path id="t-40" data-name="t" class="cls-1" d="M22.8,9.3h-3.9v1.9s3.9-1.9,3.9-1.9Z"/>
                </g>
              </g>
            </g>
            <g id="s-5" data-name="s">
              <g id="c-21" data-name="c">
                <path id="t-41" data-name="t" class="cls-1" d="M12.8,22.3l-1.2-3.7-1.9.6,3.1,3.1Z"/>
                <path id="t-42" data-name="t" class="cls-1" d="M12.8,22.3l-3.2-2.3,1.1-1.6,2,3.9Z"/>
              </g>
              <g id="a-9" data-name="a">
                <g id="c-22" data-name="c">
                  <path id="t-43" data-name="t" class="cls-1" d="M8.2,22.3l3.2-2.3-1.1-1.6-2,3.9Z"/>
                  <path id="t-44" data-name="t" class="cls-1" d="M8.2,22.3l1.2-3.7,1.9.6-3.1,3.1Z"/>
                </g>
                <g id="c-23" data-name="c">
                  <path id="t-45" data-name="t" class="cls-1" d="M6.8,17.9l3.2,2.3,1.1-1.6-4.3-.7Z"/>
                  <path id="t-46" data-name="t" class="cls-1" d="M6.8,17.9h3.9v1.9s-3.9-1.9-3.9-1.9Z"/>
                </g>
              </g>
              <g id="a-10" data-name="a">
                <g id="c-24" data-name="c">
                  <path id="t-47" data-name="t" class="cls-1" d="M14.2,17.9l-3.2,2.3-1.1-1.6,4.3-.7Z"/>
                  <path id="t-48" data-name="t" class="cls-1" d="M14.2,17.9h-3.9v1.9s3.9-1.9,3.9-1.9Z"/>
                </g>
                <g id="c-25" data-name="c">
                  <path id="t-49" data-name="t" class="cls-1" d="M10.5,15.2l1.2,3.7-1.9.6.6-4.3Z"/>
                  <path id="t-50" data-name="t" class="cls-1" d="M10.5,15.2l-1.2,3.7,1.9.6-.6-4.3Z"/>
                </g>
              </g>
            </g>
            <g id="s-6" data-name="s">
              <g id="c-26" data-name="c">
                <path id="t-51" data-name="t" class="cls-1" d="M14.2,41.3h-3.9s0,1.9,0,1.9l3.9-1.9Z"/>
                <path id="t-52" data-name="t" class="cls-1" d="M14.2,41.3l-3.2,2.3-1.1-1.6,4.3-.7Z"/>
              </g>
              <g id="a-11" data-name="a">
                <g id="c-27" data-name="c">
                  <path id="t-53" data-name="t" class="cls-1" d="M12.8,45.7l-1.2-3.7-1.9.6,3.1,3.1Z"/>
                  <path id="t-54" data-name="t" class="cls-1" d="M12.8,45.7l-3.2-2.3,1.1-1.6,2,3.9Z"/>
                </g>
                <g id="c-28" data-name="c">
                  <path id="t-55" data-name="t" class="cls-1" d="M8.2,45.7l3.2-2.3-1.1-1.6-2,3.9Z"/>
                  <path id="t-56" data-name="t" class="cls-1" d="M8.2,45.7l1.2-3.7,1.9.6-3.1,3.1Z"/>
                </g>
              </g>
              <g id="a-12" data-name="a">
                <g id="c-29" data-name="c">
                  <path id="t-57" data-name="t" class="cls-1" d="M10.5,38.6l1.2,3.7-1.9.6.6-4.3Z"/>
                  <path id="t-58" data-name="t" class="cls-1" d="M10.5,38.6l-1.2,3.7,1.9.6-.6-4.3Z"/>
                </g>
                <g id="c-30" data-name="c">
                  <path id="t-59" data-name="t" class="cls-1" d="M6.8,41.3h3.9s0,1.9,0,1.9l-3.9-1.9Z"/>
                  <path id="t-60" data-name="t" class="cls-1" d="M6.8,41.3l3.2,2.3,1.1-1.6-4.3-.7Z"/>
                </g>
              </g>
            </g>
            <g id="s-7" data-name="s">
              <g id="c-31" data-name="c">
                <path id="t-61" data-name="t" class="cls-1" d="M22.8,49.9h-3.9s0,1.9,0,1.9l3.9-1.9Z"/>
                <path id="t-62" data-name="t" class="cls-1" d="M22.8,49.9l-3.2,2.3-1.1-1.6,4.3-.7Z"/>
              </g>
              <g id="a-13" data-name="a">
                <g id="c-32" data-name="c">
                  <path id="t-63" data-name="t" class="cls-1" d="M21.3,54.2l-1.2-3.7-1.9.6,3.1,3.1Z"/>
                  <path id="t-64" data-name="t" class="cls-1" d="M21.3,54.2l-3.2-2.3,1.1-1.6,2,3.9Z"/>
                </g>
                <g id="c-33" data-name="c">
                  <path id="t-65" data-name="t" class="cls-1" d="M16.8,54.2l3.2-2.3-1.1-1.6-2,3.9Z"/>
                  <path id="t-66" data-name="t" class="cls-1" d="M16.8,54.2l1.2-3.7,1.9.6-3.1,3.1Z"/>
                </g>
              </g>
              <g id="a-14" data-name="a">
                <g id="c-34" data-name="c">
                  <path id="t-67" data-name="t" class="cls-1" d="M19.1,47.2l1.2,3.7-1.9.6.6-4.3Z"/>
                  <path id="t-68" data-name="t" class="cls-1" d="M19.1,47.2l-1.2,3.7,1.9.6-.6-4.3Z"/>
                </g>
                <g id="c-35" data-name="c">
                  <path id="t-69" data-name="t" class="cls-1" d="M15.3,49.9h3.9v1.9s-3.9-1.9-3.9-1.9Z"/>
                  <path id="t-70" data-name="t" class="cls-1" d="M15.3,49.9l3.2,2.3,1.1-1.6-4.3-.7Z"/>
                </g>
              </g>
            </g>
          </g>
          <g id="l-2" data-name="l">
            <g id="s-8" data-name="s">
              <g id="c-36" data-name="c">
                <path id="t-71" data-name="t" class="cls-1" d="M54.1,26.9l1.2,3.7-1.9.6.6-4.3Z"/>
                <path id="t-72" data-name="t" class="cls-1" d="M54.1,26.9l-1.2,3.7,1.9.6-.6-4.3Z"/>
              </g>
              <g id="a-15" data-name="a">
                <g id="c-37" data-name="c">
                  <path id="t-73" data-name="t" class="cls-1" d="M50.4,29.6h3.9s0,1.9,0,1.9l-3.9-1.9Z"/>
                  <path id="t-74" data-name="t" class="cls-1" d="M50.4,29.6l3.2,2.3,1.1-1.6-4.3-.7Z"/>
                </g>
                <g id="c-38" data-name="c">
                  <path id="t-75" data-name="t" class="cls-1" d="M51.9,34l1.2-3.7,1.9.6-3.1,3.1Z"/>
                  <path id="t-76" data-name="t" class="cls-1" d="M51.9,34l3.2-2.3-1.1-1.6-2,3.9Z"/>
                </g>
              </g>
              <g id="a-16" data-name="a">
                <g id="c-39" data-name="c">
                  <path id="t-77" data-name="t" class="cls-1" d="M57.9,29.6h-3.9s0,1.9,0,1.9l3.9-1.9Z"/>
                  <path id="t-78" data-name="t" class="cls-1" d="M57.9,29.6l-3.2,2.3-1.1-1.6,4.3-.7Z"/>
                </g>
                <g id="c-40" data-name="c">
                  <path id="t-79" data-name="t" class="cls-1" d="M56.4,34l-1.2-3.7-1.9.6,3.1,3.1Z"/>
                  <path id="t-80" data-name="t" class="cls-1" d="M56.4,34l-3.2-2.3,1.1-1.6,2,3.9Z"/>
                </g>
              </g>
            </g>
            <g id="s-9" data-name="s">
              <g id="c-41" data-name="c">
                <path id="t-81" data-name="t" class="cls-1" d="M44.7,13.7l-3.2-2.3,1.1-1.6,2,3.9Z"/>
                <path id="t-82" data-name="t" class="cls-1" d="M44.7,13.7l-1.2-3.7-1.9.6,3.1,3.1Z"/>
              </g>
              <g id="a-17" data-name="a">
                <g id="c-42" data-name="c">
                  <path id="t-83" data-name="t" class="cls-1" d="M46.2,9.3l-3.2,2.3-1.1-1.6,4.3-.7Z"/>
                  <path id="t-84" data-name="t" class="cls-1" d="M46.2,9.3h-3.9v1.9s3.9-1.9,3.9-1.9Z"/>
                </g>
                <g id="c-43" data-name="c">
                  <path id="t-85" data-name="t" class="cls-1" d="M42.4,6.6l1.2,3.7-1.9.6.6-4.3Z"/>
                  <path id="t-86" data-name="t" class="cls-1" d="M42.4,6.6l-1.2,3.7,1.9.6-.6-4.3Z"/>
                </g>
              </g>
              <g id="a-18" data-name="a">
                <g id="c-44" data-name="c">
                  <path id="t-87" data-name="t" class="cls-1" d="M40.2,13.7l3.2-2.3-1.1-1.6-2,3.9Z"/>
                  <path id="t-88" data-name="t" class="cls-1" d="M40.2,13.7l1.2-3.7,1.9.6-3.1,3.1Z"/>
                </g>
                <g id="c-45" data-name="c">
                  <path id="t-89" data-name="t" class="cls-1" d="M38.7,9.3l3.2,2.3,1.1-1.6-4.3-.7Z"/>
                  <path id="t-90" data-name="t" class="cls-1" d="M38.7,9.3h3.9v1.9s-3.9-1.9-3.9-1.9Z"/>
                </g>
              </g>
            </g>
            <g id="s-10" data-name="s">
              <g id="c-46" data-name="c">
                <path id="t-91" data-name="t" class="cls-1" d="M48.7,22.3l1.2-3.7,1.9.6-3.1,3.1Z"/>
                <path id="t-92" data-name="t" class="cls-1" d="M48.7,22.3l3.2-2.3-1.1-1.6-2,3.9Z"/>
              </g>
              <g id="a-19" data-name="a">
                <g id="c-47" data-name="c">
                  <path id="t-93" data-name="t" class="cls-1" d="M53.3,22.3l-3.2-2.3,1.1-1.6,2,3.9Z"/>
                  <path id="t-94" data-name="t" class="cls-1" d="M53.3,22.3l-1.2-3.7-1.9.6,3.1,3.1Z"/>
                </g>
                <g id="c-48" data-name="c">
                  <path id="t-95" data-name="t" class="cls-1" d="M54.7,17.9l-3.2,2.3-1.1-1.6,4.3-.7Z"/>
                  <path id="t-96" data-name="t" class="cls-1" d="M54.7,17.9h-3.9v1.9s3.9-1.9,3.9-1.9Z"/>
                </g>
              </g>
              <g id="a-20" data-name="a">
                <g id="c-49" data-name="c">
                  <path id="t-97" data-name="t" class="cls-1" d="M47.3,17.9l3.2,2.3,1.1-1.6-4.3-.7Z"/>
                  <path id="t-98" data-name="t" class="cls-1" d="M47.3,17.9h3.9v1.9s-3.9-1.9-3.9-1.9Z"/>
                </g>
                <g id="c-50" data-name="c">
                  <path id="t-99" data-name="t" class="cls-1" d="M51,15.2l-1.2,3.7,1.9.6-.6-4.3Z"/>
                  <path id="t-100" data-name="t" class="cls-1" d="M51,15.2l1.2,3.7-1.9.6.6-4.3Z"/>
                </g>
              </g>
            </g>
            <g id="s-11" data-name="s">
              <g id="c-51" data-name="c">
                <path id="t-101" data-name="t" class="cls-1" d="M47.3,41.3h3.9s0,1.9,0,1.9l-3.9-1.9Z"/>
                <path id="t-102" data-name="t" class="cls-1" d="M47.3,41.3l3.2,2.3,1.1-1.6-4.3-.7Z"/>
              </g>
              <g id="a-21" data-name="a">
                <g id="c-52" data-name="c">
                  <path id="t-103" data-name="t" class="cls-1" d="M48.7,45.7l1.2-3.7,1.9.6-3.1,3.1Z"/>
                  <path id="t-104" data-name="t" class="cls-1" d="M48.7,45.7l3.2-2.3-1.1-1.6-2,3.9Z"/>
                </g>
                <g id="c-53" data-name="c">
                  <path id="t-105" data-name="t" class="cls-1" d="M53.3,45.7l-3.2-2.3,1.1-1.6,2,3.9Z"/>
                  <path id="t-106" data-name="t" class="cls-1" d="M53.3,45.7l-1.2-3.7-1.9.6,3.1,3.1Z"/>
                </g>
              </g>
              <g id="a-22" data-name="a">
                <g id="c-54" data-name="c">
                  <path id="t-107" data-name="t" class="cls-1" d="M51,38.6l-1.2,3.7,1.9.6-.6-4.3Z"/>
                  <path id="t-108" data-name="t" class="cls-1" d="M51,38.6l1.2,3.7-1.9.6.6-4.3Z"/>
                </g>
                <g id="c-55" data-name="c">
                  <path id="t-109" data-name="t" class="cls-1" d="M54.7,41.3h-3.9s0,1.9,0,1.9l3.9-1.9Z"/>
                  <path id="t-110" data-name="t" class="cls-1" d="M54.7,41.3l-3.2,2.3-1.1-1.6,4.3-.7Z"/>
                </g>
              </g>
            </g>
            <g id="s-12" data-name="s">
              <g id="c-56" data-name="c">
                <path id="t-111" data-name="t" class="cls-1" d="M38.7,49.9h3.9s0,1.9,0,1.9l-3.9-1.9Z"/>
                <path id="t-112" data-name="t" class="cls-1" d="M38.7,49.9l3.2,2.3,1.1-1.6-4.3-.7Z"/>
              </g>
              <g id="a-23" data-name="a">
                <g id="c-57" data-name="c">
                  <path id="t-113" data-name="t" class="cls-1" d="M40.2,54.2l1.2-3.7,1.9.6-3.1,3.1Z"/>
                  <path id="t-114" data-name="t" class="cls-1" d="M40.2,54.2l3.2-2.3-1.1-1.6-2,3.9Z"/>
                </g>
                <g id="c-58" data-name="c">
                  <path id="t-115" data-name="t" class="cls-1" d="M44.7,54.2l-3.2-2.3,1.1-1.6,2,3.9Z"/>
                  <path id="t-116" data-name="t" class="cls-1" d="M44.7,54.2l-1.2-3.7-1.9.6,3.1,3.1Z"/>
                </g>
              </g>
              <g id="a-24" data-name="a">
                <g id="c-59" data-name="c">
                  <path id="t-117" data-name="t" class="cls-1" d="M42.4,47.2l-1.2,3.7,1.9.6-.6-4.3Z"/>
                  <path id="t-118" data-name="t" class="cls-1" d="M42.4,47.2l1.2,3.7-1.9.6.6-4.3Z"/>
                </g>
                <g id="c-60" data-name="c">
                  <path id="t-119" data-name="t" class="cls-1" d="M46.2,49.9h-3.9v1.9s3.9-1.9,3.9-1.9Z"/>
                  <path id="t-120" data-name="t" class="cls-1" d="M46.2,49.9l-3.2,2.3-1.1-1.6,4.3-.7Z"/>
                </g>
              </g>
            </g>
          </g>
        </g>
      </g>
    </g>
  </g>
</svg>